<?xml version="1.0" standalone="no"?>
<!DOCTYPE svg PUBLIC "-//W3C//DTD SVG 20010904//EN"
 "http://www.w3.org/TR/2001/REC-SVG-20010904/DTD/svg10.dtd">
<svg version="1.0" xmlns="http://www.w3.org/2000/svg"
 width="642.000000pt" height="642.000000pt" viewBox="0 0 642.000000 642.000000"
 preserveAspectRatio="xMidYMid meet">
<metadata>
Created by potrace 1.14, written by Peter Selinger 2001-2017
</metadata>
<g transform="translate(0.000000,642.000000) scale(0.100000,-0.100000)"
fill="#000000" stroke="none">
<path d="M6400 6013 l0 -408 -27 35 c-34 45 -231 240 -242 240 -5 0 -31 20
-57 45 -27 25 -53 45 -59 45 -5 0 -44 20 -86 44 -42 24 -89 46 -104 50 -15 4
-42 18 -59 31 -36 27 -86 43 -86 26 0 -6 -7 -8 -17 -4 -15 6 -15 7 3 13 17 6
17 8 -6 20 -14 7 -59 26 -100 41 -161 59 -193 73 -222 101 -25 23 -45 31 -97
37 -40 5 -68 5 -72 -1 -8 -12 -129 -1 -176 15 -25 8 -36 8 -45 -1 -19 -19 -35
-14 -42 14 -5 19 -12 25 -29 22 -13 -2 -22 -10 -22 -21 0 -10 -7 -22 -15 -27
-23 -15 -50 -12 -50 5 0 8 -4 15 -9 15 -5 0 -14 -7 -21 -15 -15 -19 -25 -19
-42 -1 -27 26 -57 28 -103 6 -34 -16 -48 -19 -64 -11 -26 15 -78 15 -121 3
-88 -27 -159 -42 -202 -42 -44 0 -106 -17 -151 -41 -10 -5 -34 -7 -54 -3 -27
5 -34 4 -28 -6 10 -16 -12 -30 -47 -30 -16 0 -28 -4 -28 -10 0 -15 -48 -12
-53 3 -3 9 -11 9 -38 1 -20 -7 -117 -12 -241 -13 -200 -1 -209 -2 -297 -31
-50 -17 -96 -30 -102 -30 -6 0 -20 -11 -30 -24 -20 -25 -76 -41 -136 -37 -23
1 -35 -4 -42 -18 -6 -11 -21 -23 -33 -26 -13 -4 -43 -16 -68 -28 -27 -13 -67
-22 -100 -22 -30 -1 -62 -4 -70 -7 -8 -4 -22 -9 -30 -12 -8 -4 2 -4 22 -2 40
5 56 -5 35 -21 -6 -6 -42 -21 -78 -34 -45 -15 -65 -27 -62 -36 3 -8 -3 -13
-19 -13 -13 0 -32 -6 -43 -14 -11 -7 -40 -16 -65 -20 -25 -4 -54 -9 -66 -12
-18 -5 -21 -1 -20 35 1 43 -21 59 -31 22 -6 -24 -111 -77 -170 -86 -24 -4 -43
-11 -43 -15 0 -13 36 -22 75 -19 19 2 37 0 41 -4 4 -4 1 -7 -7 -8 -8 0 -4 -4
8 -9 22 -9 90 4 108 21 12 12 42 12 50 -1 6 -10 -45 -40 -69 -40 -8 0 -27 -11
-42 -25 -15 -14 -44 -30 -65 -35 -22 -6 -39 -14 -39 -19 0 -15 -55 -32 -134
-41 -65 -8 -84 -7 -103 5 -12 8 -33 15 -45 16 -13 0 -32 4 -43 9 -19 8 -19 8
5 18 l25 11 -28 0 c-16 1 -37 6 -48 12 -12 6 -27 8 -35 5 -24 -9 2 -46 32 -46
35 0 91 -40 72 -51 -9 -6 -5 -9 15 -9 34 0 35 -12 2 -30 -15 -8 -24 -19 -20
-28 3 -8 -4 -26 -15 -42 -27 -38 -26 -41 19 -34 31 5 39 3 45 -11 4 -12 -1
-25 -14 -37 -11 -10 -20 -24 -20 -31 0 -8 3 -8 8 -2 8 11 58 45 67 45 14 0 2
-22 -17 -30 -13 -6 -31 -15 -40 -22 -14 -10 -20 -9 -36 5 -18 16 -20 16 -38
-4 -42 -47 -138 -63 -195 -33 -27 14 -33 14 -53 0 -13 -8 -41 -16 -62 -18 -33
-2 -40 -7 -42 -27 -2 -13 -17 -37 -32 -53 -42 -42 -47 -67 -19 -89 21 -16 22
-18 7 -24 -15 -6 -10 -13 25 -42 78 -66 63 -95 -47 -92 -57 1 -96 -11 -125
-40 -11 -11 -35 -27 -52 -37 -31 -16 -32 -17 -14 -30 10 -8 25 -14 32 -14 18
0 16 -25 -2 -44 -8 -8 -15 -17 -15 -20 0 -14 69 -4 105 15 37 19 150 49 185
49 8 0 21 -4 29 -9 20 -13 -11 -71 -54 -98 -36 -24 -99 -31 -110 -13 -8 12
-55 13 -55 1 0 -5 7 -11 15 -15 8 -3 15 -12 15 -19 0 -18 -149 -28 -219 -15
-68 13 -130 25 -181 36 -36 8 -54 7 -98 -10 -61 -23 -92 -62 -92 -118 0 -48 8
-56 57 -65 40 -6 59 -28 32 -37 -6 -2 -12 -17 -14 -33 -2 -17 -6 -46 -10 -65
-5 -27 -3 -39 9 -49 9 -7 16 -11 16 -7 0 20 48 -30 59 -61 8 -21 31 -74 52
-119 22 -44 39 -88 39 -96 0 -9 3 -18 8 -20 22 -9 54 -123 59 -210 3 -51 10
-98 15 -105 5 -7 7 -20 4 -30 -3 -10 -10 -54 -15 -98 -9 -84 -28 -123 -118
-250 -34 -49 -35 -50 -13 -53 32 -5 107 70 137 138 14 30 31 62 38 70 7 8 15
35 18 60 17 161 29 250 36 284 7 29 5 45 -4 60 -8 12 -30 82 -49 156 -21 82
-51 166 -75 215 -22 44 -41 87 -41 96 0 8 -4 19 -9 25 -6 5 -13 24 -16 43 -3
19 -15 45 -26 59 -17 22 -18 27 -5 40 12 13 28 13 112 2 54 -6 132 -11 173 -9
42 1 88 -1 103 -5 18 -5 34 -3 49 7 20 14 49 13 49 -2 0 -3 -10 -18 -23 -31
-62 -71 -61 -67 -22 -64 19 2 37 -2 41 -7 8 -13 -35 -100 -59 -117 -9 -7 -14
-18 -11 -24 4 -6 10 -5 15 3 5 8 9 9 9 3 0 -5 -9 -19 -19 -31 -20 -21 -51
-101 -51 -130 0 -28 68 46 76 81 10 49 52 115 77 121 12 2 38 1 57 -3 34 -8
35 -9 34 -55 -2 -52 4 -57 31 -27 19 21 50 27 60 11 3 -6 -14 -29 -37 -53 -33
-35 -42 -40 -46 -25 -2 10 -13 17 -28 17 -23 0 -29 -10 -38 -61 -6 -34 -18
-58 -32 -63 -15 -6 -15 -9 0 -31 12 -19 16 -45 14 -110 -1 -47 -5 -78 -9 -69
-4 12 -8 14 -13 6 -3 -6 -1 -20 6 -31 10 -16 9 -23 -5 -39 -9 -10 -17 -23 -17
-29 0 -6 -9 -13 -19 -16 -10 -2 -34 -29 -53 -58 -20 -30 -56 -76 -83 -104 -60
-64 -115 -130 -115 -139 0 -4 -12 -33 -26 -64 -14 -31 -32 -84 -39 -117 -14
-69 -35 -113 -77 -167 -25 -32 -27 -39 -14 -44 14 -5 14 -9 2 -33 -8 -15 -26
-33 -40 -41 -32 -17 -34 -34 -2 -26 20 5 23 3 18 -19 -3 -18 0 -25 12 -25 17
0 22 -25 7 -35 -5 -3 -7 -26 -4 -52 5 -51 -20 -133 -42 -133 -7 0 -15 -7 -19
-15 -4 -13 1 -14 34 -9 l40 7 0 -71 c0 -73 -13 -99 -35 -69 -15 21 -29 21 -45
2 -14 -17 -67 -45 -87 -45 -14 0 -17 11 -13 45 3 28 19 45 42 45 18 0 52 56
42 71 -10 17 -44 -5 -44 -27 0 -15 -6 -24 -16 -24 -18 0 -74 -53 -74 -70 0 -6
8 -14 18 -18 28 -11 31 -47 11 -119 -6 -23 -21 -52 -33 -64 -20 -22 -21 -22
-25 -4 -6 33 -31 -42 -31 -95 0 -38 6 -55 26 -80 35 -41 42 -102 19 -172 -16
-54 -16 -56 8 -139 14 -46 37 -138 52 -204 15 -66 40 -169 56 -230 32 -123 35
-159 14 -195 -8 -14 -14 -40 -15 -57 0 -18 -4 -33 -9 -33 -5 0 -11 -17 -15
-39 -4 -27 -12 -40 -26 -44 -15 -4 -20 -13 -20 -37 0 -26 -11 -44 -55 -88 -35
-35 -55 -64 -55 -79 0 -13 -10 -29 -24 -39 -14 -8 -32 -37 -42 -62 -42 -119
-48 -129 -86 -151 -21 -12 -38 -28 -38 -35 0 -8 -25 -45 -55 -83 -30 -37 -61
-77 -70 -88 -8 -11 -24 -32 -35 -47 -52 -68 -66 -174 -38 -275 12 -41 14 -43
50 -43 41 0 48 13 23 40 -10 11 -18 47 -22 98 -6 79 -5 81 23 109 28 27 41 45
65 90 13 24 42 38 59 28 13 -8 13 -58 1 -70 -15 -16 -24 -82 -12 -89 6 -4 11
-26 11 -49 0 -23 4 -49 9 -57 6 -8 7 -19 3 -25 -3 -5 -7 -25 -8 -42 l-1 -33
561 0 c507 0 570 2 651 19 50 10 114 28 144 39 30 12 57 20 59 17 2 -2 -6 -20
-18 -39 l-22 -36 437 0 c422 0 438 1 462 20 14 11 38 20 53 20 19 0 30 7 38
25 6 14 20 25 30 25 11 0 30 11 44 25 14 14 43 32 64 41 21 8 66 29 99 47 33
17 79 34 103 39 41 8 62 12 192 42 36 8 112 24 170 36 58 11 132 28 165 36 33
9 76 19 95 24 19 4 73 22 120 39 47 18 115 43 151 55 70 25 109 46 109 58 0
12 -24 9 -56 -6 -61 -31 -308 -82 -534 -111 -25 -4 -76 -13 -115 -21 -112 -23
-292 -37 -397 -31 -68 3 -98 2 -102 -6 -3 -9 -7 -9 -13 -1 -5 7 -64 14 -151
17 -79 3 -149 10 -155 15 -7 5 -77 30 -157 57 -141 46 -252 92 -258 108 -2 4
-10 7 -17 7 -14 0 -95 88 -95 104 0 5 -15 34 -32 65 -18 31 -33 61 -33 66 0 6
-6 28 -12 50 -24 86 -33 143 -34 230 -2 105 -6 125 -24 125 -21 0 -27 46 -13
111 8 41 9 62 2 67 -6 4 -10 39 -9 82 2 62 -11 174 -22 189 -6 9 -33 -23 -33
-40 0 -11 -6 -19 -14 -19 -8 0 -16 -6 -19 -12 -3 -10 -7 -10 -20 1 -9 7 -23
11 -31 8 -10 -4 -18 2 -22 16 -6 20 -59 77 -71 77 -3 0 -2 -11 1 -25 8 -31 -2
-33 -13 -2 -9 24 5 51 21 41 7 -4 7 2 2 17 -4 13 -8 35 -8 49 0 14 -4 27 -8
31 -15 10 -61 257 -52 279 4 8 6 38 5 65 -1 28 5 69 13 93 14 39 14 47 1 79
-8 19 -15 44 -15 55 0 11 -6 25 -13 32 -14 14 -14 92 0 145 5 19 6 60 2 90 -3
31 -4 60 -1 65 3 5 6 39 8 76 2 74 9 113 31 180 8 25 15 59 15 75 0 17 7 42
14 57 8 15 14 38 14 51 0 12 4 27 8 33 4 5 16 34 26 64 11 30 23 61 29 68 5 7
7 15 4 18 -2 3 6 16 20 30 15 15 22 31 19 41 -4 10 1 21 13 29 10 8 29 34 40
58 17 34 29 45 52 50 36 7 53 0 45 -19 -3 -8 2 -19 9 -25 19 -15 45 -68 45
-90 0 -24 67 -153 87 -167 30 -23 44 -16 32 14 -8 23 -7 30 8 41 20 15 97 9
119 -9 8 -6 20 -9 28 -6 8 3 26 -6 40 -19 20 -20 28 -23 44 -15 11 6 22 8 25
5 3 -3 41 -8 84 -10 65 -4 82 -1 101 14 l24 18 -43 13 c-49 15 -39 28 22 29
44 1 88 27 109 66 7 15 18 25 24 23 14 -5 55 -87 56 -111 0 -17 -5 -18 -55
-12 -30 3 -55 3 -55 -2 0 -11 83 -32 130 -32 37 0 40 2 40 27 0 37 -73 197
-102 224 -10 9 -18 19 -18 23 0 10 -39 46 -51 46 -5 0 -8 4 -5 8 7 12 -35 58
-61 66 -13 4 -23 12 -23 17 0 5 -7 9 -16 9 -9 0 -28 6 -42 14 -15 8 -40 18
-57 22 -16 3 -24 9 -17 11 21 8 102 -17 158 -48 93 -52 243 -239 258 -322 2
-15 7 -31 11 -36 14 -24 5 -81 -23 -141 -35 -75 -47 -127 -26 -109 7 6 12 14
11 17 -1 4 7 17 18 29 34 37 42 49 64 92 12 23 19 46 16 51 -3 5 1 12 9 17 35
20 58 261 26 271 -6 2 -10 9 -10 16 0 24 -25 65 -47 77 -13 7 -23 16 -23 20 0
3 -36 44 -81 90 -44 46 -88 94 -96 107 -8 12 -23 22 -32 22 -17 0 -45 18 -81
51 -10 10 -35 23 -56 30 -55 17 -121 48 -106 49 28 1 9 18 -35 31 -26 7 -42
14 -35 17 19 6 14 22 -8 22 -11 0 -42 10 -70 22 -36 16 -47 25 -39 34 7 8 2
13 -16 18 -14 4 -23 11 -20 16 3 6 -4 10 -17 10 -18 0 -20 2 -8 10 12 8 8 10
-15 11 -16 1 -23 3 -14 6 9 2 16 15 17 31 0 16 14 55 31 88 17 32 36 88 42
124 6 36 24 91 40 123 15 31 49 119 75 194 25 76 54 148 64 160 10 13 24 43
31 68 8 26 19 45 28 45 11 0 13 -12 8 -60 -3 -33 -1 -60 4 -60 5 0 9 6 9 14 0
15 21 26 50 26 20 0 45 34 36 49 -3 4 10 26 29 47 19 21 35 46 35 55 0 9 6 19
13 22 8 3 21 20 31 39 52 103 116 175 176 197 40 15 63 25 105 49 20 11 57 17
111 18 44 1 99 5 121 8 43 8 123 -8 123 -24 0 -6 7 -10 16 -10 8 0 29 -13 47
-30 18 -16 38 -30 45 -30 7 0 12 -13 12 -31 0 -19 4 -29 12 -27 13 5 53 -31
44 -39 -3 -4 3 -13 15 -21 11 -8 18 -20 15 -28 -3 -7 4 -20 15 -27 12 -9 17
-20 13 -30 -9 -25 15 -115 33 -121 13 -5 14 -1 10 24 -4 16 -3 30 2 30 13 0
19 -60 11 -130 -5 -52 -3 -67 9 -76 17 -13 34 -116 30 -184 -2 -32 11 -71 21
-65 12 7 29 -50 23 -74 -3 -11 0 -35 6 -52 9 -26 8 -35 -4 -49 -17 -19 -20
-40 -6 -40 20 0 41 -33 41 -65 0 -19 6 -38 14 -42 24 -14 136 -157 136 -174 0
-9 6 -19 14 -22 7 -3 16 -22 19 -42 5 -29 22 -52 82 -110 53 -51 75 -80 75
-97 0 -27 47 -68 78 -68 11 0 31 -12 45 -26 15 -15 44 -35 64 -46 21 -12 45
-29 54 -39 9 -11 23 -19 31 -19 8 0 28 -20 46 -45 17 -24 49 -56 71 -70 45
-28 50 -39 24 -54 -16 -9 -16 -12 -3 -21 19 -13 40 -13 40 0 0 6 -5 10 -12 10
-9 0 -8 3 1 13 11 10 14 10 18 0 3 -7 11 -13 19 -13 10 0 14 -12 14 -40 0 -43
6 -49 25 -23 11 15 15 15 44 -6 30 -22 42 -51 20 -51 -7 0 -9 -11 -5 -30 3
-18 1 -30 -5 -30 -6 0 -7 -9 -3 -22 6 -20 5 -21 -8 -10 -20 16 -29 50 -17 58
17 10 -12 35 -32 29 -14 -5 -19 -1 -19 15 0 23 -19 34 -47 27 -15 -3 -14 -5 6
-14 l25 -10 -29 -7 c-23 -6 -34 -2 -61 25 -19 18 -36 30 -39 27 -3 -3 6 -16
20 -29 13 -13 25 -28 25 -32 0 -5 10 -17 23 -28 19 -16 20 -20 7 -29 -13 -8
-12 -10 3 -10 10 0 35 -16 55 -35 20 -19 40 -35 44 -35 13 0 78 -64 78 -77 0
-7 6 -13 14 -13 7 0 19 -13 26 -30 7 -16 18 -35 26 -41 17 -14 18 -26 2 -32
-7 -2 -5 -3 6 -1 10 1 29 -4 42 -13 25 -16 33 -35 13 -30 -6 1 -13 -3 -16 -10
-2 -6 6 -13 19 -15 30 -4 59 -55 39 -67 -12 -7 -12 -14 0 -42 7 -19 16 -90 20
-159 3 -69 11 -145 17 -170 25 -104 69 -504 73 -665 1 -44 5 -89 9 -101 5 -11
4 -27 -1 -36 -5 -9 -11 -67 -13 -129 -3 -63 -9 -127 -15 -142 -6 -16 -11 -39
-11 -52 0 -13 -11 -46 -25 -73 -14 -28 -25 -55 -25 -61 0 -6 -4 -19 -10 -29
-14 -25 -58 -144 -62 -167 -2 -11 -13 -24 -26 -30 -12 -5 -22 -13 -22 -17 0
-4 -12 -18 -27 -32 -15 -14 -24 -28 -21 -31 8 -9 48 13 48 25 0 15 20 12 37
-6 14 -14 14 -24 4 -87 -7 -40 -22 -90 -33 -112 -34 -66 -50 -118 -52 -166 -2
-57 -47 -147 -126 -254 -31 -42 -69 -102 -84 -131 -15 -30 -34 -60 -41 -68
-18 -18 -75 -108 -75 -118 0 -4 423 -8 940 -8 l940 0 0 3210 c0 2133 -3 3210
-10 3210 -7 0 -10 -143 -10 -407z m-1530 277 c0 -5 -7 -10 -15 -10 -8 0 -15 5
-15 10 0 6 7 10 15 10 8 0 15 -4 15 -10z m370 0 c0 -5 -7 -10 -15 -10 -8 0
-18 0 -22 -1 -4 0 -9 4 -11 10 -2 6 8 11 22 11 14 0 26 -4 26 -10z m323 -127
c-7 -2 -19 -2 -25 0 -7 3 -2 5 12 5 14 0 19 -2 13 -5z m-3573 -947 c0 -11 -19
-15 -25 -6 -3 5 1 10 9 10 9 0 16 -2 16 -4z m105 -16 c-10 -11 -24 -20 -30
-20 -12 0 -106 -34 -136 -50 -9 -4 -22 -4 -29 0 -10 6 -7 10 13 15 15 4 27 10
27 14 0 14 111 59 149 60 23 1 24 0 6 -19z m-172 -16 c-2 -7 -17 -14 -31 -16
-21 -2 -28 -9 -30 -30 -4 -31 -31 -44 -115 -52 -46 -5 -59 -3 -63 9 -4 11 -19
14 -53 12 -35 -1 -46 1 -46 13 0 10 13 17 40 20 22 3 50 14 63 25 35 31 246
48 235 19z m-147 -829 c4 -9 -9 -34 -31 -61 -29 -35 -40 -43 -49 -33 -8 8 -8
13 2 16 8 3 22 25 32 49 20 45 36 55 46 29z m683 -377 c32 -19 25 -28 -20 -28
-55 0 -47 -19 16 -37 28 -9 68 -32 93 -54 25 -21 51 -39 59 -39 8 0 31 -17 51
-37 21 -21 50 -47 65 -58 15 -11 34 -26 42 -33 8 -7 30 -19 50 -28 20 -8 33
-19 30 -24 -3 -6 4 -10 16 -10 12 0 20 -3 16 -6 -8 -8 12 -28 37 -37 10 -4 16
-10 13 -13 -3 -3 9 -19 26 -35 26 -24 29 -30 17 -38 -11 -7 -24 1 -55 34 -22
25 -55 61 -72 80 -18 20 -33 32 -33 29 0 -4 -10 2 -22 13 -23 20 -180 75 -252
88 -25 4 -50 18 -68 37 -16 17 -28 24 -28 17 -1 -8 -8 -2 -16 14 -12 22 -18
25 -33 18 -12 -7 -22 -6 -29 1 -8 8 -15 8 -24 0 -10 -8 -25 -6 -57 9 -24 10
-46 17 -50 15 -4 -3 -13 0 -21 5 -13 8 -12 12 6 27 12 10 27 28 33 40 7 13 22
27 34 32 17 7 18 9 5 9 -10 1 -18 5 -18 9 0 14 167 14 189 0z m71 -54 c0 -2
-9 -4 -21 -4 -11 0 -18 4 -14 10 5 8 35 3 35 -6z m-450 -372 c0 -15 -2 -15
-10 -2 -13 20 -13 33 0 25 6 -3 10 -14 10 -23z m485 19 c3 -5 -6 -31 -21 -58
-28 -53 -28 -86 2 -148 9 -20 15 -38 12 -40 -6 -6 -99 44 -125 68 -15 13 -23
32 -23 53 0 18 -7 39 -15 48 -20 19 -19 21 12 56 24 27 32 30 89 30 35 0 65
-4 69 -9z m195 -106 c0 -9 -10 -15 -25 -15 -18 0 -25 5 -25 18 0 10 3 22 6 25
10 10 44 -12 44 -28z m1950 -173 c7 2 14 -5 15 -15 2 -10 12 -25 22 -32 10 -7
15 -17 10 -21 -8 -8 -87 73 -87 90 0 6 7 3 14 -7 8 -10 19 -16 26 -15z m-3594
-389 c-3 -3 -13 -3 -22 1 -16 6 -15 8 2 21 16 12 19 12 22 -1 2 -9 1 -18 -2
-21z m4408 -1549 c9 -23 8 -24 -14 -24 -19 0 -27 20 -13 33 11 11 20 8 27 -9z
m-3628 -171 c8 -18 14 -48 14 -67 0 -28 6 -37 35 -55 39 -23 44 -49 21 -103
-8 -18 -20 -68 -27 -110 -7 -45 -16 -75 -21 -72 -28 18 -48 91 -48 180 0 67
-4 95 -14 103 -29 24 -48 175 -23 184 17 6 47 -22 63 -60z m-204 39 c5 -5 13
-31 17 -58 5 -27 16 -85 25 -129 15 -73 15 -84 1 -130 -16 -50 -9 -105 13
-105 11 0 32 -45 32 -70 0 -45 -22 -70 -76 -86 -38 -11 -60 -24 -75 -45 -12
-17 -24 -28 -27 -25 -3 3 -11 1 -18 -5 -14 -11 -18 -6 -28 32 -4 18 -1 31 9
39 24 20 18 26 -24 22 -33 -3 -42 0 -54 20 -14 22 -33 128 -28 156 1 8 -5 44
-14 80 -22 86 -15 150 22 202 23 32 34 40 60 40 23 0 37 8 52 29 12 16 21 35
21 41 0 14 76 8 92 -8z m3628 -290 c0 -5 -11 -19 -25 -32 -24 -22 -25 -22 -25
-4 0 11 5 25 12 32 14 14 38 16 38 4z m-4180 -88 c0 -3 -7 -16 -16 -29 -9 -13
-13 -28 -10 -33 3 -5 6 -73 7 -151 1 -78 6 -144 11 -147 16 -10 8 -44 -22 -91
-19 -30 -26 -49 -19 -52 6 -2 15 2 19 9 4 7 10 8 14 2 11 -18 -34 -47 -69 -43
-18 1 -47 -5 -64 -13 -16 -9 -42 -16 -56 -16 -15 0 -34 -4 -43 -9 -12 -6 -29
-4 -52 7 -19 9 -51 19 -70 22 -30 4 -35 9 -33 30 1 14 -2 37 -7 52 -9 29 5
104 25 128 7 8 16 26 20 40 4 14 17 37 29 52 11 15 36 47 54 71 18 25 52 58
75 73 23 16 57 42 75 59 33 30 97 56 120 47 6 -2 12 -6 12 -8z m4018 -46 c-6
-18 -28 -21 -28 -4 0 9 7 16 16 16 9 0 14 -5 12 -12z m32 -50 c0 -18 -2 -20
-9 -8 -6 8 -7 18 -5 22 9 14 14 9 14 -14z m80 -152 c0 -3 -4 -8 -10 -11 -5 -3
-10 -1 -10 4 0 6 5 11 10 11 6 0 10 -2 10 -4z m-66 -128 c-9 -14 -23 2 -17 18
4 12 8 13 14 3 4 -7 5 -17 3 -21z m26 -58 c0 -5 -4 -10 -10 -10 -5 0 -10 5
-10 10 0 6 5 10 10 10 6 0 10 -4 10 -10z m-4510 -90 c0 -5 -11 -10 -25 -10
-14 0 -25 5 -25 10 0 6 11 10 25 10 14 0 25 -4 25 -10z m4530 -30 c0 -5 -2
-10 -4 -10 -3 0 -8 5 -11 10 -3 6 -1 10 4 10 6 0 11 -4 11 -10z m-4360 -109
c0 -6 -4 -13 -10 -16 -5 -3 -10 1 -10 9 0 9 5 16 10 16 6 0 10 -4 10 -9z m40
5 c0 -3 -4 -8 -10 -11 -5 -3 -10 -1 -10 4 0 6 5 11 10 11 6 0 10 -2 10 -4z"/>
<path d="M1735 5120 c-27 -7 -27 -8 -5 -8 14 0 36 4 50 8 20 6 21 8 5 8 -11 0
-33 -4 -50 -8z"/>
<path d="M2330 3950 c-11 -8 -7 -9 15 -4 37 8 45 14 19 14 -10 0 -26 -5 -34
-10z"/>
<path d="M1670 799 c0 -5 5 -7 10 -4 6 3 10 8 10 11 0 2 -4 4 -10 4 -5 0 -10
-5 -10 -11z"/>
<path d="M3880 6266 c0 -2 11 -6 25 -8 13 -3 22 -1 19 3 -5 9 -44 13 -44 5z"/>
<path d="M2868 6043 c7 -3 16 -2 19 1 4 3 -2 6 -13 5 -11 0 -14 -3 -6 -6z"/>
<path d="M2578 5923 c7 -3 16 -2 19 1 4 3 -2 6 -13 5 -11 0 -14 -3 -6 -6z"/>
<path d="M2505 5910 c-3 -5 -2 -10 4 -10 5 0 13 5 16 10 3 6 2 10 -4 10 -5 0
-13 -4 -16 -10z"/>
<path d="M1670 5546 c0 -9 -8 -16 -19 -16 -10 0 -21 -7 -25 -15 -3 -10 -19
-15 -45 -15 -50 0 -59 -14 -33 -49 15 -21 19 -38 15 -80 -3 -40 -1 -52 9 -49
7 3 14 17 16 31 2 18 9 27 22 27 11 0 17 7 16 17 -1 16 9 17 91 15 53 -1 95 2
98 8 3 6 -5 10 -19 10 -13 0 -37 5 -53 11 -26 10 -27 12 -8 19 11 5 39 9 63 9
23 1 42 6 42 11 0 6 8 10 18 11 11 0 12 2 4 6 -7 3 -25 16 -39 29 -19 17 -38
24 -67 24 -23 0 -51 3 -63 6 -17 5 -23 2 -23 -10z"/>
<path d="M1172 4751 c-11 -7 -11 -9 2 -14 16 -6 66 7 66 18 0 8 -54 5 -68 -4z"/>
<path d="M1516 4223 c-11 -11 -6 -23 9 -23 8 0 15 4 15 9 0 13 -16 22 -24 14z"/>
<path d="M3818 3492 c-16 -15 -28 -33 -28 -40 0 -6 -8 -12 -17 -13 -12 0 -14
-2 -5 -6 8 -3 26 6 40 20 41 38 85 41 80 5 -2 -16 -9 -22 -23 -20 -17 2 -16 0
5 -12 17 -10 30 -11 42 -5 12 6 25 6 39 -1 11 -7 27 -9 34 -6 8 3 17 1 20 -4
4 -6 15 -10 26 -10 10 0 19 -7 19 -15 0 -13 9 -15 48 -9 38 5 57 2 88 -14 45
-23 174 -40 174 -23 0 6 9 11 20 11 11 0 20 -4 20 -9 0 -5 20 -8 45 -7 24 2
56 -2 70 -10 27 -14 33 -6 13 15 -11 11 -9 12 7 3 11 -6 29 -20 40 -32 26 -29
55 -44 55 -30 0 16 -76 90 -93 90 -7 0 -24 11 -38 26 -17 18 -19 23 -6 18 9
-3 17 -10 17 -15 0 -5 6 -9 12 -9 7 0 3 10 -9 22 -21 20 -40 26 -105 31 -16 1
-28 5 -28 9 0 4 -6 5 -14 2 -7 -3 -16 2 -19 10 -8 19 -53 21 -60 4 -3 -10 -16
-7 -49 10 -36 19 -65 24 -154 27 -60 2 -138 6 -174 9 -61 6 -67 4 -92 -22z"/>
<path d="M4540 3421 c0 -9 24 -21 43 -21 6 0 2 7 -9 15 -22 17 -34 19 -34 6z"/>
<path d="M2778 3263 c7 -3 16 -2 19 1 4 3 -2 6 -13 5 -11 0 -14 -3 -6 -6z"/>
<path d="M3960 3209 c-36 -3 -78 -13 -95 -23 -16 -9 -21 -14 -10 -11 11 4 61
10 111 12 69 4 106 1 150 -12 86 -25 106 -34 99 -45 -4 -7 -14 -6 -28 2 -12 6
-23 11 -24 10 -2 -1 -4 -2 -5 -1 -8 2 -65 9 -78 8 -8 0 -30 0 -49 1 -43 0
-132 -25 -186 -53 -51 -27 -105 -47 -127 -47 -11 0 -18 -8 -18 -18 0 -27 7
-31 45 -22 29 7 35 5 40 -11 6 -19 21 -25 27 -11 2 4 26 18 55 30 40 17 71 22
137 22 47 0 86 -3 86 -7 0 -5 -7 -17 -15 -27 -19 -25 -19 -106 -1 -151 19 -46
52 -64 122 -69 32 -2 60 -9 62 -15 2 -6 8 -9 13 -5 5 3 9 -1 9 -10 0 -19 -85
-19 -101 1 -6 7 -19 13 -28 13 -10 0 -26 7 -37 15 -10 8 -27 15 -37 15 -23 0
-152 64 -194 96 -37 28 -43 29 -43 9 0 -8 -4 -15 -10 -15 -13 0 -13 27 1 32
18 6 -2 38 -30 45 -14 3 -35 12 -46 19 -26 19 -35 18 -35 -4 0 -24 38 -54 66
-54 13 0 21 -4 18 -9 -10 -17 8 -49 37 -64 16 -9 29 -22 29 -30 0 -14 24 -20
58 -16 6 1 12 -3 12 -9 0 -5 -5 -10 -11 -10 -8 0 -7 -5 1 -15 8 -10 21 -13 33
-9 14 4 17 3 12 -6 -5 -8 -3 -11 6 -8 8 3 13 11 11 17 -1 6 2 11 8 11 5 0 10
-4 10 -10 0 -5 9 -10 20 -10 13 0 18 -5 14 -14 -3 -8 -1 -23 5 -33 10 -16 10
-17 11 -1 0 14 6 16 33 12 73 -12 127 -27 133 -35 10 -16 23 -10 38 19 12 23
15 25 21 10 4 -10 11 -15 17 -12 5 3 15 -2 22 -12 12 -15 17 -16 45 -5 17 8
31 18 31 23 0 6 7 4 17 -3 10 -8 41 -14 77 -14 34 -1 73 -5 89 -9 21 -6 27 -5
27 8 0 10 6 13 15 10 18 -7 21 26 3 44 -6 6 -9 14 -5 18 3 3 20 -10 37 -30 34
-38 50 -45 50 -21 0 8 -4 15 -8 15 -5 0 -14 11 -20 25 -14 31 -15 38 -3 30 5
-3 12 4 16 15 4 11 17 28 31 36 13 9 24 21 24 27 0 5 -8 3 -17 -6 -58 -51
-110 0 -63 60 26 33 17 43 -13 15 -34 -32 -47 -28 -42 13 5 37 -2 44 -23 23
-10 -10 -15 -10 -22 2 -5 8 -10 11 -10 5 0 -5 -4 -3 -9 4 -6 9 -6 22 -1 31 8
14 5 16 -15 12 -14 -2 -25 0 -25 5 0 5 -15 14 -34 21 -18 7 -45 22 -58 35 -14
12 -32 23 -39 25 -27 6 -79 33 -79 41 0 5 -10 9 -22 9 -13 0 -50 10 -83 22
-74 27 -150 37 -235 29z m343 -107 c42 -36 6 -35 -45 0 -16 11 -28 23 -28 28
0 11 48 -8 73 -28z m116 -82 c24 -22 39 -40 34 -40 -6 0 -23 12 -38 27 -15 15
-34 28 -43 28 -8 0 -17 6 -19 13 -9 24 23 11 66 -28z m-149 -61 c0 -15 -30
-23 -42 -11 -6 6 -8 18 -4 27 4 13 10 14 26 5 11 -6 20 -15 20 -21z m127 -163
c-3 -8 -22 -18 -41 -22 -20 -3 -36 -10 -36 -15 0 -5 -7 -9 -15 -9 -8 0 -15 5
-15 11 0 5 5 7 10 4 6 -3 10 -2 10 4 0 6 17 22 37 36 38 25 61 21 50 -9z"/>
<path d="M4650 2690 c0 -5 5 -10 10 -10 6 0 10 5 10 10 0 6 -4 10 -10 10 -5 0
-10 -4 -10 -10z"/>
<path d="M2452 2389 c-22 -27 -44 -64 -47 -82 -4 -18 -13 -46 -20 -62 -9 -19
-12 -47 -8 -70 3 -22 6 -47 7 -55 1 -9 5 -20 8 -26 4 -6 9 -22 12 -37 5 -31
14 -47 25 -47 4 0 27 -18 50 -39 47 -43 79 -54 156 -54 123 -1 255 6 255 13 0
10 -66 37 -113 45 -39 8 -152 75 -174 104 -7 9 -15 32 -19 51 -3 19 -24 72
-45 118 -32 67 -40 92 -38 132 2 27 0 52 -2 55 -3 3 -24 -18 -47 -46z"/>
<path d="M2040 2217 c0 -18 48 -59 60 -52 12 8 -29 65 -47 65 -7 0 -13 -6 -13
-13z"/>
<path d="M2140 2088 c0 -8 3 -18 7 -22 8 -8 24 -57 48 -141 7 -27 14 -102 15
-165 2 -139 2 -139 -10 -120 -5 8 -10 10 -10 4 0 -6 7 -17 15 -24 8 -7 15 -21
15 -31 0 -10 4 -20 10 -24 5 -3 8 -21 6 -40 -1 -20 2 -31 7 -28 6 4 7 -5 3
-21 -5 -19 -3 -26 9 -26 8 0 15 -5 15 -11 0 -6 -7 -9 -15 -5 -8 3 -15 2 -15
-2 0 -14 24 -32 42 -32 10 0 15 -5 12 -14 -6 -15 42 -50 56 -41 6 3 10 1 10
-5 0 -24 91 -82 148 -95 18 -4 45 -13 60 -21 15 -8 42 -14 60 -14 18 0 31 -4
28 -8 -5 -9 113 -36 122 -28 5 6 -60 36 -78 36 -6 0 -9 4 -6 8 3 4 42 3 88 -4
83 -12 173 -7 310 17 70 12 205 55 235 75 12 8 29 14 36 14 8 0 26 9 40 20 22
18 37 20 116 16 65 -3 95 -1 108 9 26 20 10 30 -78 54 -148 40 -340 107 -455
161 -125 58 -259 108 -309 115 -52 8 -73 20 -169 97 -57 46 -84 58 -206 92
-30 9 -68 27 -84 40 -16 14 -37 28 -47 31 -11 4 -19 13 -19 21 0 8 -5 14 -11
14 -7 0 -10 12 -7 29 2 17 1 28 -4 25 -4 -3 -8 2 -8 11 0 11 -5 15 -15 11 -8
-3 -19 2 -24 12 -5 9 -13 14 -17 10 -4 -5 -13 -3 -21 3 -10 9 -13 8 -13 -3z
m785 -628 c3 -6 -1 -7 -9 -4 -18 7 -21 14 -7 14 6 0 13 -4 16 -10z m108 -67
c8 -5 37 -8 124 -16 12 -1 28 -8 35 -15 23 -23 -16 -40 -95 -42 -91 -2 -87 -2
-121 6 -19 5 -27 3 -22 -4 3 -6 -12 -3 -33 5 -33 13 -41 21 -44 47 -4 28 -5
29 -11 9 -9 -26 -32 -37 -42 -21 -4 7 -2 14 4 16 7 2 12 10 12 17 0 11 19 13
92 9 51 -3 97 -8 101 -11z"/>
<path d="M2930 2058 c-19 -5 -46 -18 -60 -29 l-25 -20 35 8 c56 13 220 6 269
-11 93 -34 88 -1 -7 41 -56 25 -145 30 -212 11z"/>
<path d="M2160 1589 c0 -11 4 -18 10 -14 5 3 7 12 3 20 -7 21 -13 19 -13 -6z"/>
<path d="M2160 1532 c0 -14 30 -71 41 -78 21 -12 21 6 0 34 -12 17 -21 35 -21
41 0 6 -4 11 -10 11 -5 0 -10 -4 -10 -8z"/>
<path d="M4753 825 c-12 -8 -35 -28 -50 -43 -48 -45 -69 -59 -107 -73 -20 -7
-36 -17 -36 -21 0 -4 -7 -8 -15 -8 -8 0 -15 -4 -15 -10 0 -5 -9 -10 -19 -10
-11 0 -23 -5 -26 -11 -14 -21 6 -22 46 -1 71 38 104 57 109 62 3 3 19 15 35
27 41 28 108 93 103 98 -2 3 -14 -2 -25 -10z"/>
</g>
</svg>
